# xmcd
#
# Track frame offsets: 
#        150
#        16445
#        29225
#        41790
#        59915
#        76115
#        88707
#        111502
#        125625
#
# Disc length: 1810 seconds
#
# Revision: 0
# Processed by: cddbd v1.5.2PL0 Copyright (c) Steve Scherf et al.
# Submitted via: ExactAudioCopyFreeDBPlugin 1.0
#
DISCID=83071009
DTITLE=Hoover - The Last Outlaw Album
DYEAR=2002
DGENRE=Country
TTITLE0=Absolute Zero
TTITLE1=Jesus Don't Drive No Fatback Ford
TTITLE2=I'm the Lonliest Man I Ever Met
TTITLE3=Freedon to Stay
TTITLE4=Hamilton Jones
TTITLE5=Can I Help You
TTITLE6=Take My Hand
TTITLE7=Sweet Lady Jane
TTITLE8=I Only Wrote it for You
EXTD=
EXTT0=
EXTT1=
EXTT2=
EXTT3=
EXTT4=
EXTT5=
EXTT6=
EXTT7=
EXTT8=
PLAYORDER=
